<svg width="17" height="22" viewBox="0 0 17 22" fill="none" xmlns="http://www.w3.org/2000/svg">
<path id="Vector" d="M12.3958 2.75H14.1667C15.7294 2.75 17 3.9832 17 5.5V19.25C17 20.7668 15.7294 22 14.1667 22H2.83333C1.27057 22 0 20.7668 0 19.25V5.5C0 3.9832 1.27057 2.75 2.83333 2.75H4.60417H5.02917C5.35677 1.18164 6.78672 0 8.5 0C10.2133 0 11.6432 1.18164 11.9708 2.75H12.3958ZM2.83333 4.8125C2.44375 4.8125 2.125 5.12187 2.125 5.5V19.25C2.125 19.6281 2.44375 19.9375 2.83333 19.9375H14.1667C14.5562 19.9375 14.875 19.6281 14.875 19.25V5.5C14.875 5.12187 14.5562 4.8125 14.1667 4.8125H13.4583V5.84375C13.4583 6.41523 12.9846 6.875 12.3958 6.875H8.5H4.60417C4.01536 6.875 3.54167 6.41523 3.54167 5.84375V4.8125H2.83333ZM8.5 4.46875C8.78179 4.46875 9.05204 4.3601 9.2513 4.1667C9.45056 3.97331 9.5625 3.711 9.5625 3.4375C9.5625 3.164 9.45056 2.90169 9.2513 2.7083C9.05204 2.5149 8.78179 2.40625 8.5 2.40625C8.21821 2.40625 7.94796 2.5149 7.7487 2.7083C7.54944 2.90169 7.4375 3.164 7.4375 3.4375C7.4375 3.711 7.54944 3.97331 7.7487 4.1667C7.94796 4.3601 8.21821 4.46875 8.5 4.46875Z" fill="#302F2F"/>
</svg>
